<svg width="30" height="26" viewBox="0 0 30 26" fill="none" xmlns="http://www.w3.org/2000/svg">
<path fill-rule="evenodd" clip-rule="evenodd" d="M0.396527 0.131437C-0.142321 0.481177 -0.130176 1.16726 0.421932 1.56796C0.576417 1.68007 0.671056 1.68628 2.4801 1.70264C4.17662 1.71798 4.38579 1.73 4.46552 1.81664C4.52942 1.88612 8.15767 14.787 8.5283 16.2627C8.56468 16.4075 8.55417 16.4195 8.39054 16.4195C8.11677 16.4195 7.52987 16.6162 7.21134 16.8148C5.3939 17.9477 5.54574 20.5154 7.48545 21.4496L7.9881 21.6918L8.95209 21.711C10.0495 21.7329 9.94835 21.6607 9.76324 22.2902C9.57807 22.9202 9.67018 23.7119 10.0076 24.3892C10.2214 24.8187 10.8893 25.4732 11.3202 25.6756C12.3162 26.1435 13.412 26.1037 14.3342 25.566C14.9727 25.1937 15.4169 24.6561 15.6625 23.9583C15.8845 23.3277 15.8421 22.4506 15.5579 21.7915C15.5336 21.7351 16.1038 21.7203 18.2965 21.7203H21.0658L21.0243 21.8485C20.8564 22.3668 20.8137 22.6064 20.8138 23.0312C20.8139 23.8597 21.1066 24.5478 21.707 25.131C22.3019 25.709 23.0176 25.9951 23.8685 25.9951C25.261 25.9951 26.4407 25.1263 26.8308 23.8134C26.9959 23.2577 26.9484 22.4133 26.7225 21.8915C26.6393 21.6991 26.641 21.6931 26.8084 21.5942C27.3728 21.2607 27.336 20.4448 26.7426 20.14L26.4902 20.0103H17.4616C8.59624 20.0103 8.42885 20.0083 8.20648 19.8981C7.54254 19.569 7.55164 18.5325 8.22121 18.2238C8.40896 18.1373 9.14806 18.1294 17.1073 18.1294C22.7341 18.1294 25.8998 18.109 26.1047 18.0715C26.7813 17.9477 27.3902 17.4946 27.6772 16.9014C27.7471 16.7571 28.3077 14.5185 28.9231 11.9266C30.155 6.73847 30.1287 6.90279 29.8249 6.29958C29.658 5.9682 29.3982 5.71769 29.0153 5.51894C28.7695 5.39132 28.7431 5.39007 25.5406 5.35462C23.7658 5.33495 19.3169 5.31249 15.6543 5.30469C11.9917 5.29693 8.61238 5.27453 8.14476 5.25493L7.29453 5.21936L6.76237 3.30035C6.46966 2.24486 6.17958 1.27237 6.1178 1.13916C5.95797 0.794893 5.50449 0.366668 5.1091 0.186668L4.77056 0.0325458L2.68475 0.0163014L0.599006 0L0.396527 0.131437ZM10.4 7.01479H11.7575L12.0059 8.85298C12.1426 9.86401 12.2537 10.736 12.2528 10.7909C12.2514 10.8836 12.1311 10.8907 10.5603 10.8907H8.86936L8.35739 9.04865C8.07588 8.03551 7.82928 7.14646 7.8095 7.07299L7.77354 6.93939L8.40808 6.97706C8.75706 6.99781 9.6534 7.01479 10.4 7.01479ZM17.4145 8.95272V10.8907H15.745H14.0755L14.0423 10.7054C14.0089 10.5193 13.5421 7.10371 13.5421 7.04574C13.5421 7.0287 14.4134 7.01479 15.4783 7.01479H17.4145V8.95272ZM23.0447 7.11454C23.0434 7.16943 22.9302 8.03506 22.7932 9.03822L22.544 10.8622L20.8593 10.8773L19.1747 10.8924V8.95358V7.01479H21.1108C22.9166 7.01479 23.0469 7.02152 23.0447 7.11454ZM28.2397 7.20004C28.2225 7.2706 28.0235 8.10727 27.7976 9.05942C27.5717 10.0116 27.3726 10.8131 27.3551 10.8406C27.3375 10.8681 26.6515 10.8907 25.8305 10.8907C24.676 10.8907 24.3376 10.8745 24.3369 10.8194C24.3364 10.7802 24.4474 9.92101 24.5834 8.90998L24.8309 7.07179H26.551H28.2711L28.2397 7.20004ZM12.769 14.4103C12.905 15.4056 13.0157 16.2649 13.0151 16.3197C13.0141 16.4112 12.9202 16.4195 11.8737 16.4195C11.2466 16.4195 10.6656 16.3944 10.5827 16.3638C10.4997 16.3331 10.3929 16.2241 10.3452 16.1215C10.2599 15.9379 9.37635 12.7835 9.37635 12.6627C9.37635 12.6195 9.85447 12.6006 10.9491 12.6006H12.522L12.769 14.4103ZM17.4145 14.51V16.4195H16.1248H14.8351L14.8068 16.2912C14.7799 16.1692 14.3048 12.7103 14.3048 12.636C14.3048 12.6166 15.0045 12.6006 15.8597 12.6006H17.4145V14.51ZM22.2843 12.6879C22.2843 12.8187 21.8142 16.2657 21.7851 16.3482C21.766 16.4023 21.4489 16.4195 20.4673 16.4195H19.1747V14.51V12.6006H20.7295C22.0867 12.6006 22.2843 12.6117 22.2843 12.6879ZM26.9194 12.6751C26.9194 12.7918 26.1597 15.9742 26.092 16.1413C26.0586 16.2234 25.9659 16.3197 25.8859 16.355C25.724 16.4268 23.5751 16.4478 23.5751 16.3777C23.5751 16.2864 24.0552 12.7384 24.0766 12.6718C24.1108 12.5655 26.9194 12.5687 26.9194 12.6751ZM13.3661 21.9094C14.1434 22.2897 14.2866 23.3493 13.6389 23.9292C13.3232 24.2119 13.0417 24.305 12.5968 24.2737C12.1343 24.2412 11.8112 24.0263 11.5912 23.6048C10.9958 22.4642 12.1827 21.3304 13.3661 21.9094ZM24.1911 21.7832C24.7338 21.9159 25.1676 22.4568 25.1676 23.0005C25.1676 23.7415 24.627 24.2809 23.8812 24.2839C23.1142 24.287 22.5819 23.7683 22.579 23.0147C22.5774 22.6086 22.7167 22.3217 23.0502 22.0444C23.4003 21.7532 23.7455 21.6742 24.1911 21.7832Z" fill="white"/>
</svg>
