<svg width="39" height="34" viewBox="0 0 39 34" fill="none" xmlns="http://www.w3.org/2000/svg">
<path fill-rule="evenodd" clip-rule="evenodd" d="M9.28779 0.0435695C5.81035 0.412888 2.72727 2.61573 1.17407 5.84088C-0.0340848 8.34947 -0.325243 11.3183 0.372318 14.0163C1.2884 17.5595 3.65075 20.6539 9.17476 25.5468C11.0292 27.1893 18.819 33.7765 19.0424 33.8911C19.3377 34.0426 19.7156 34.0355 20.0097 33.873C20.1414 33.8002 20.9469 33.1418 21.7997 32.4099C22.6525 31.6779 24.6879 29.944 26.3228 28.5568C29.5421 25.8251 30.2891 25.1682 32.0497 23.5203C37.0898 18.8028 39.174 14.9141 38.9887 10.5732C38.859 7.53434 37.733 4.90519 35.7023 2.89986C34.2338 1.44957 32.6155 0.590594 30.553 0.166626C29.6403 -0.0209819 27.7025 -0.020604 26.8183 0.167381C24.9361 0.56754 23.377 1.41215 21.9599 2.79925C21.2237 3.5199 20.3786 4.59762 19.8805 5.4513C19.6929 5.77293 19.5222 6.03612 19.5012 6.03612C19.4802 6.03612 19.3095 5.77293 19.1219 5.4513C18.2919 4.02898 16.7964 2.39426 15.5825 1.58245C14.832 1.08063 13.7728 0.579407 13.0225 0.37124C11.879 0.0538492 10.4068 -0.0752536 9.28779 0.0435695ZM12.123 2.47559C12.845 2.66365 13.6898 3.04483 14.3094 3.46208C15.9248 4.54993 17.4007 6.5929 18.2333 8.89347C18.528 9.70777 18.6351 9.87588 18.9662 10.0434C19.3465 10.2358 19.6559 10.2358 20.0362 10.0434C20.3793 9.86975 20.4452 9.76106 20.8364 8.72136C22.3559 4.68334 25.2739 2.25865 28.6139 2.25865C33.0735 2.25865 36.4754 5.77096 36.7036 10.611C36.8595 13.9196 35.3651 16.9183 31.7005 20.6497C29.834 22.5503 28.5546 23.6878 22.7225 28.6314L19.5031 31.3603L15.7865 28.2095C10.7004 23.8979 9.65844 22.9732 7.7602 21.0866C4.98642 18.3297 3.60166 16.3977 2.82537 14.2014C2.42499 13.0688 2.31896 12.4047 2.31851 11.0268C2.31797 9.64004 2.43489 8.89302 2.8272 7.77652C3.85776 4.84321 6.26363 2.78096 9.17346 2.33673C9.8961 2.22645 11.4469 2.29939 12.123 2.47559Z" fill="white"/>
</svg>
