<svg width="30" height="26" viewBox="0 0 30 26" fill="none" xmlns="http://www.w3.org/2000/svg">
<path fill-rule="evenodd" clip-rule="evenodd" d="M7.14445 0.0333178C4.4695 0.315738 2.0979 2.00026 0.903131 4.46656C-0.0262191 6.38489 -0.250187 8.65517 0.286398 10.7184C0.991077 13.4279 2.80827 15.7942 7.0575 19.5358C8.48398 20.7918 14.4761 25.8291 14.648 25.9167C14.8752 26.0326 15.1659 26.0272 15.3921 25.9029C15.4934 25.8472 16.113 25.3438 16.769 24.7841C17.425 24.2243 18.9907 22.8984 20.2483 21.8375C22.7247 19.7486 23.2993 19.2463 24.6536 17.9861C28.5306 14.3786 30.1338 11.4049 29.9913 8.08542C29.8915 5.76155 29.0254 3.75102 27.4633 2.21754C26.3337 1.10849 25.0888 0.451631 23.5023 0.12742C22.8002 -0.0160449 21.3096 -0.015756 20.6294 0.127997C19.1816 0.434001 17.9823 1.07988 16.8922 2.1406C16.3259 2.69169 15.6759 3.51583 15.2927 4.16864C15.1484 4.41459 15.017 4.61586 15.0009 4.61586C14.9848 4.61586 14.8535 4.41459 14.7091 4.16864C14.0707 3.08098 12.9203 1.8309 11.9865 1.21011C11.4092 0.826361 10.5944 0.443076 10.0173 0.283889C9.13771 0.0411788 8.00526 -0.0575469 7.14445 0.0333178ZM9.32539 1.8931C9.88079 2.03691 10.5307 2.3284 11.0073 2.64747C12.2499 3.47936 13.3851 5.04163 14.0256 6.80089C14.2523 7.42359 14.3347 7.55214 14.5894 7.68023C14.8819 7.82739 15.1199 7.82739 15.4125 7.68023C15.6764 7.54746 15.7271 7.46434 16.028 6.66927C17.1969 3.58138 19.4415 1.7272 22.0107 1.7272C25.4412 1.7272 28.058 4.41309 28.2335 8.11432C28.3535 10.6444 27.2039 12.9375 24.385 15.7909C22.9492 17.2444 21.965 18.1142 17.4788 21.8946L15.0024 23.9814L12.1435 21.572C8.23105 18.2749 7.42957 17.5678 5.96938 16.125C3.83571 14.0168 2.77051 12.5394 2.17336 10.8599C1.86537 9.99375 1.78382 9.48596 1.78347 8.43223C1.78306 7.3718 1.873 6.80054 2.17477 5.94675C2.96751 3.70363 4.81818 2.12662 7.05651 1.78691C7.61238 1.70258 8.80534 1.75836 9.32539 1.8931Z" fill="white"/>
</svg>
