<svg width="58" height="52" viewBox="0 0 58 52" fill="none" xmlns="http://www.w3.org/2000/svg">
<path d="M57.1297 28.2028C57.0193 21.1565 56.5147 9.71796 55.7263 2.71899C55.5686 1.36027 54.449 0.159542 53.0928 0.0805469C44.7353 -0.440821 21.9493 1.73945 21.9493 1.73945C20.1674 1.88164 18.9532 2.02383 17.9598 3.08236C17.9598 3.08236 4.33548 17.6175 0.645561 22.4994C-0.537105 24.0793 -0.064039 26.6861 1.81246 27.2549C6.00698 28.5346 13.6233 30.7307 18.1175 35.2176C22.7535 39.8625 25.1662 46.8299 27.09 50.2583C28.0519 51.9804 30.2122 52.5333 31.8364 51.4274C37.8443 47.3355 50.4752 38.2352 55.8209 33.3059C57.5081 31.7576 57.1612 30.0513 57.1297 28.2028ZM47.0849 28.9138C47.0849 29.1192 46.9114 29.293 46.7065 29.293H43.0165C42.8115 29.293 42.6381 29.1192 42.6381 28.9138V18.9446C42.6381 16.9065 41.5973 15.6584 39.7366 15.6584C37.7655 15.6584 36.5198 16.9697 36.5198 19.5766V28.9296C36.5198 29.135 36.3463 29.3088 36.1413 29.3088H32.4514C32.2464 29.3088 32.0729 29.135 32.0729 28.9296V18.9604C32.0729 16.9223 31.0322 15.6742 29.1715 15.6742C27.2634 15.6742 25.9231 16.9855 25.9231 19.5924V28.9454C25.9231 29.1508 25.7496 29.3246 25.5446 29.3246H21.8547C21.6497 29.3246 21.4762 29.1508 21.4762 28.9454V11.8666C21.4762 11.6612 21.6497 11.4874 21.8547 11.4874H25.5446C25.7496 11.4874 25.9231 11.6612 25.9231 11.8666V12.7514C25.9231 13.0832 26.3331 13.2569 26.5696 13.02C27.5473 12.0404 28.9507 11.4874 30.7326 11.4874C32.6722 11.4874 34.1702 12.23 35.1479 13.5571C35.2898 13.7625 35.5894 13.7625 35.7471 13.5729C36.8351 12.2616 38.4593 11.4874 40.5881 11.4874C44.5303 11.4874 47.1164 14.2997 47.1164 18.6286V28.9138H47.0849Z" fill="white"/>
</svg>
