<svg width="22" height="26" viewBox="0 0 22 26" fill="none" xmlns="http://www.w3.org/2000/svg">
<path fill-rule="evenodd" clip-rule="evenodd" d="M9.86973 0.0650277C8.46224 0.28332 7.20473 0.941196 6.21909 1.97489C5.13785 3.10886 4.57751 4.41831 4.50046 5.99115C4.39285 8.18791 5.48553 10.2879 7.36945 11.5051C8.29608 12.1037 9.18982 12.4077 10.2724 12.4923C12.2788 12.6491 13.9898 12.0269 15.371 10.6381C16.7201 9.2815 17.3236 7.60773 17.1564 5.68606C17.0131 4.03898 16.2745 2.61767 14.9979 1.53282C13.9894 0.675717 13.0589 0.252404 11.7767 0.0673159C11.1607 -0.021618 10.4341 -0.0224824 9.86973 0.0650277ZM12.0675 1.66441C12.8725 1.86959 13.4823 2.2178 14.1644 2.86174C15.0471 3.6951 15.4992 4.60757 15.6158 5.79096C15.754 7.19535 15.3175 8.47612 14.3537 9.49369C13.7578 10.1228 12.877 10.657 12.1251 10.8454C11.0213 11.1219 9.69862 11.0024 8.75127 10.5405C7.45655 9.90923 6.50081 8.7331 6.1492 7.33864C6.01495 6.80615 6.02969 5.59718 6.17704 5.05046C6.5742 3.57733 7.87588 2.2089 9.32042 1.74597C10.1012 1.4958 11.2699 1.46107 12.0675 1.66441ZM5.18882 12.6061C4.4013 12.6882 3.58595 12.9807 2.94181 13.4123C1.33347 14.4898 0.293044 16.8995 0.0535921 20.1016C-0.0809257 21.9004 0.0275646 22.7895 0.495697 23.7245C0.75427 24.2409 1.24384 24.8092 1.74439 25.174C2.12156 25.449 2.76374 25.7361 3.32423 25.8805L3.78808 26H11.0036H18.2191L18.683 25.8808C20.3113 25.4625 21.4481 24.3762 21.8574 22.8474C22.069 22.0571 22.0419 20.1765 21.7975 18.6906C21.2542 15.3873 19.8835 13.404 17.7153 12.7841C17.2196 12.6424 16.3327 12.5346 16.0698 12.5842C15.8182 12.6316 15.4666 12.8169 14.673 13.3204C13.818 13.8627 13.6813 13.9334 13.0443 14.1617C12.2896 14.4323 11.7297 14.537 11.0365 14.5371C10.3106 14.5371 9.75557 14.4391 9.02345 14.1814C8.3321 13.9381 8.30216 13.9225 7.22246 13.246C6.65311 12.8892 6.23187 12.6607 6.06447 12.6179C5.77838 12.5447 5.77843 12.5447 5.18882 12.6061ZM6.529 14.6166C7.50108 15.2307 7.90701 15.4286 8.75632 15.7029C10.9708 16.4181 13.2338 16.073 15.3672 14.6947C16.3327 14.071 16.3104 14.0803 16.7217 14.1316C18.5926 14.3649 19.7583 15.9162 20.2527 18.8304C20.4563 20.0298 20.5187 21.7039 20.3836 22.3389C20.1658 23.3623 19.4648 24.0826 18.3954 24.382C18.0826 24.4695 17.6783 24.4745 11.0036 24.4745C4.31157 24.4745 3.92518 24.4697 3.6077 24.3813C2.83857 24.1672 2.17418 23.6505 1.86402 23.0254C1.59591 22.4849 1.53205 22.033 1.56942 20.9406C1.60714 19.8377 1.66177 19.325 1.83778 18.4236C1.97498 17.721 2.28896 16.7244 2.50882 16.294C3.17317 14.9934 4.07495 14.2819 5.24835 14.1326C5.43734 14.1086 5.61026 14.086 5.63263 14.0825C5.65494 14.0789 6.05834 14.3193 6.529 14.6166Z" fill="white"/>
</svg>
